<?xml version="1.0" encoding="utf-8"?>
<!-- Generator: Adobe Illustrator 20.1.0, SVG Export Plug-In . SVG Version: 6.00 Build 0)  -->
<svg version="1.1" id="Isolation_Mode" xmlns="http://www.w3.org/2000/svg" xmlns:xlink="http://www.w3.org/1999/xlink" x="0px"
	 y="0px" viewBox="0 0 536.6 354.4" style="enable-background:new 0 0 536.6 354.4;" xml:space="preserve">
<style type="text/css">
	.st0{fill:#3C3C3C;}
</style>
<g>
	<path class="st0" d="M510.2,235.4v-44h26.4v-15.5h-26.4V48.9h-24.9L401,170.3c3.7-15.4,4.8-31.8,2.8-48.4
		C394.8,47,326.8-6.4,252,2.6c-74.9,9-128.2,77-119.2,151.8c0.9,7.3,2.3,14.5,4.3,21.3h-21.3V48.9H90.9L0,179.7v11.7h98.9v44h16.8
		v-44h26.4v-0.7c22.9,55.1,80.3,90.6,142.4,83.1c28.6-3.4,54.1-15.5,74.1-33.3l127.9,110l0.2,0.2c4.3,3.3,8.7,4.2,11.5,3.8
		c0,0,0,0,0,0c2.3-0.3,3.6-1.4,4.3-2.2l22.7-29c2.8-3.6,0.5-10.3-5.3-14.9l-136.2-97.5c4.1-6.5,7.6-13.4,10.6-20.5v1h98.9v44H510.2z
		 M98.9,175.8H21.8L98.9,63.1V175.8z M515.9,318.7L496,344.1c-0.7-0.2-10.6-8.1-10.6-8.1l20.6-25.2C506,310.7,515.5,318,515.9,318.7
		z M497.8,304.8l-20.1,24.5l-96.5-83l13.2-15.5L497.8,304.8z M386.1,224.9c-3.8,5.2-8.1,10.2-12.7,14.8l-7.3-6.3
		c4.3-4.5,8.3-9.2,12-14.2L386.1,224.9z M283.3,263.1c-69,8.3-131.7-40.9-140-109.9c-8.3-69,40.9-131.7,109.9-140
		c69-8.3,131.7,40.9,140,109.9C401.5,192.1,352.3,254.8,283.3,263.1z M416.2,175.8l77.2-112.7v112.7H416.2z"/>
	<path class="st0" d="M335.9,56c1.6-2.2,1.2-5.3-1-7c-23-17.2-51.4-24.8-80-21.4c-14.9,1.8-29,6.5-42,13.9
		c-12.5,7.2-23.4,16.5-32.3,27.9c-8.9,11.4-15.5,24.1-19.5,38c-4.1,14.3-5.3,29.2-3.5,44.1c2.4,19.6,9.9,38.2,21.7,53.8
		c1,1.3,2.5,2,4,2c1,0,2.1-0.3,3-1c2.2-1.7,2.6-4.8,1-7c-10.8-14.2-17.6-31.2-19.8-49c-6.7-55.5,33-106.1,88.5-112.7
		c26-3.1,51.8,3.8,72.8,19.4C331.2,58.6,334.3,58.2,335.9,56z"/>
	<path class="st0" d="M373.2,120.5c-2.7,0.3-4.7,2.8-4.4,5.5c3.2,26.9-4.2,53.4-20.9,74.7c-16.7,21.3-40.7,34.8-67.6,38
		c-2.7,0.3-4.7,2.8-4.4,5.5c0.3,2.5,2.5,4.4,4.9,4.4c0.2,0,0.4,0,0.6,0c14.9-1.8,29-6.5,42-13.9c12.5-7.2,23.4-16.5,32.3-27.9
		c8.9-11.4,15.5-24.1,19.5-38c4.1-14.3,5.3-29.2,3.5-44.1C378.5,122.1,376,120.2,373.2,120.5z"/>
</g>
</svg>
