<?xml version="1.0" encoding="utf-8"?>
<!-- Generator: Adobe Illustrator 20.1.0, SVG Export Plug-In . SVG Version: 6.00 Build 0)  -->
<svg version="1.1" id="Layer_1" xmlns="http://www.w3.org/2000/svg" xmlns:xlink="http://www.w3.org/1999/xlink" x="0px" y="0px"
	 width="219.6px" height="146.2px" viewBox="0 0 219.6 146.2" style="enable-background:new 0 0 219.6 146.2;" xml:space="preserve"
	>
<style type="text/css">
	.st0{fill:#1695CA;}
</style>
<path class="st0" d="M203,56.5h-3.5V34.9c0-9.5-7.7-17.2-17.2-17.2c-4.6,0-8.8,1.8-11.9,4.8v-5.2c0-9.5-7.7-17.2-17.2-17.2
	C143.7,0,136,7.7,136,17.2v38.2H84.7V17.2C84.7,7.7,76.9,0,67.4,0c-9.5,0-17.2,7.7-17.2,17.2v5.2c-3.1-2.9-7.3-4.8-11.9-4.8
	c-9.5,0-17.2,7.7-17.2,17.2v21.6h-4C8,56.5,0.6,63.9,0.6,73.1c0,9.2,7.5,16.6,16.6,16.6h4v21.6c0,9.5,7.7,17.2,17.2,17.2
	c4.6,0,8.8-1.8,11.9-4.8v5.2c0,9.5,7.7,17.2,17.2,17.2c9.5,0,17.2-7.7,17.2-17.2V93.9H136V129c0,9.5,7.7,17.2,17.2,17.2
	c9.5,0,17.2-7.7,17.2-17.2v-5.2c3.1,2.9,7.3,4.8,11.9,4.8c9.5,0,17.2-7.7,17.2-17.2V89.7h3.5c9.2,0,16.6-7.5,16.6-16.6
	C219.6,63.9,212.1,56.5,203,56.5z M17.2,83.7c-5.9,0-10.6-4.8-10.6-10.6c0-5.9,4.8-10.6,10.6-10.6h4v21.2H17.2z M49.6,111.3
	c0,6.2-5,11.2-11.2,11.2s-11.2-5-11.2-11.2V34.9c0-6.2,5-11.2,11.2-11.2s11.2,5,11.2,11.2V111.3z M78.7,129c0,6.2-5,11.2-11.2,11.2
	c-6.2,0-11.2-5-11.2-11.2V17.2C56.2,11,61.3,6,67.4,6c6.2,0,11.2,5,11.2,11.2V129z M84.7,87.9V61.4H136v26.5H84.7z M164.4,129
	c0,6.2-5,11.2-11.2,11.2c-6.2,0-11.2-5-11.2-11.2V17.2C142,11,147,6,153.2,6c6.2,0,11.2,5,11.2,11.2V129z M193.5,111.3
	c0,6.2-5,11.2-11.2,11.2c-6.2,0-11.2-5-11.2-11.2V34.9c0-6.2,5-11.2,11.2-11.2c6.2,0,11.2,5,11.2,11.2V111.3z M203,83.7h-3.5V62.5
	h3.5c5.9,0,10.6,4.8,10.6,10.6C213.6,78.9,208.8,83.7,203,83.7z"/>
</svg>
