<?xml version="1.0" encoding="utf-8"?>
<!-- Generator: Adobe Illustrator 20.1.0, SVG Export Plug-In . SVG Version: 6.00 Build 0)  -->
<svg version="1.1" id="Layer_1" xmlns="http://www.w3.org/2000/svg" xmlns:xlink="http://www.w3.org/1999/xlink" x="0px" y="0px"
	 width="201px" height="182.9px" viewBox="0 0 201 182.9" style="enable-background:new 0 0 201 182.9;" xml:space="preserve">
<style type="text/css">
	.st0{fill:#1695CA;}
</style>
<path class="st0" d="M146.2,0.1c-18.5,0-35.6,10.2-45.7,26.9C90.4,10.3,73.3,0.1,54.8,0.1C24.6,0.1,0,27.1,0,60.2
	c0,5.3,0.6,10.5,1.8,15.5c-0.1,0.4-0.2,0.7-0.2,1.1c0,1,0.5,1.8,1.2,2.4c2.6,8.7,7.1,16.7,13.1,23.4c9.3,10.3,79.5,75.7,82.5,78.4
	l2,1.9l2-1.9c3.1-2.9,76.4-70,86-82.7c8-10.7,12.5-24.2,12.5-38.1C201,27.1,176.4,0.1,146.2,0.1z M54.8,6.1c18,0,34.5,10.9,43,28.5
	l2.7,5.6l2.7-5.6c8.5-17.6,25-28.5,43-28.5c26.9,0,48.8,24.3,48.8,54.1c0,4.6-0.5,9.2-1.6,13.6h-43.1c-0.1,0-0.2,0-0.4,0
	c-0.3-0.2-0.7-0.3-1.1-0.4c-1.6-0.3-3.2,0.8-3.4,2.5l-4.5,27.7l-24-69l-15.5,39.3H75.1h-0.4c-0.3-0.2-0.6-0.3-1-0.4
	c-1.6-0.3-3.2,0.8-3.4,2.5l-4.5,27.7l-24-69L26.2,73.8H7.6c-1-4.4-1.6-9-1.6-13.6C6,30.4,27.9,6.1,54.8,6.1z M183.7,94.7
	c-8.4,11.2-71,68.8-83.2,80c-11.9-11.1-71.8-67-80.1-76.2c-4.9-5.4-8.6-11.8-11.1-18.7h18.7c1.4,0,2.5-0.9,2.9-2.2
	c0.3-0.3,0.5-0.6,0.6-1l9.8-24.9L67.9,128l7.8-48.1h27.4h0.1c1.4,0,2.5-0.9,2.9-2.2c0.3-0.3,0.5-0.6,0.6-1l9.8-24.9l26.5,76.2
	l7.8-48.1h40.8C189.7,85.2,187.1,90.3,183.7,94.7z"/>
</svg>
