<?xml version="1.0" encoding="utf-8"?>
<!-- Generator: Adobe Illustrator 20.1.0, SVG Export Plug-In . SVG Version: 6.00 Build 0)  -->
<svg version="1.1" id="Layer_1" xmlns="http://www.w3.org/2000/svg" xmlns:xlink="http://www.w3.org/1999/xlink" x="0px" y="0px"
	 width="80px" height="80px" viewBox="0 0 80 80" style="enable-background:new 0 0 80 80;" xml:space="preserve">
<style type="text/css">
	.st0{fill:#1695CA;}
</style>
<g>
	<path class="st0" d="M68.7,55v-2.5c0-6.9-2.7-9.8-6.2-11.5V28.7c0-5.8-4.4-10.6-10-11.2l0-5.1C52.5,4.2,48.3,0,40,0
		c-8.3,0-12.5,4.2-12.5,12.5v5l0,0.1c-5.6,0.6-10,5.4-10,11.2v12.9c-3.6,2-6.2,5.2-6.2,12.1V55H0v25h13.7v-2.5H2.5v-20h15v5H15
		c-0.7,0-1.2,0.6-1.2,1.2v7.5c0,0.2,0,0.4,0.1,0.6l3.7,7.5l0,0c0.2,0.4,0.6,0.7,1.1,0.7h42.5c0.5,0,0.9-0.3,1.1-0.7l0,0l3.7-7.5
		c0.1-0.2,0.1-0.4,0.1-0.6v-7.5c0-0.7-0.6-1.2-1.2-1.2h-2.5v-5h15v20H66.2V80H80V55H68.7z M60,28.7V40c-0.7-0.2-1.4-0.5-2.1-0.7
		c-2.3-0.7-4.7-1.5-7.1-2.8l-2.8-4.2l-0.6,0.1v-3.2c1-1,3.3-3.6,4.6-9.3C56.5,20.4,60,24.2,60,28.7z M30,13.3l3.8-1.9l12.5,5
		l3.7-1.8v2.9c-1.1,7.4-4,10-4.4,10.3c-2.2,1.1-5.6,1.1-5.6,1.1c0,0-3.4,0-5.6-1.1c-0.4-0.3-3.3-2.9-4.4-10.3V13.3z M35,30.5
		c2.4,0.7,4.9,0.7,5,0.7c0.1,0,2.6,0,5-0.7v2.3l-5,0.8l-5-0.8V30.5z M33.1,35.1l6.9,1.2l6.9-1.2l1.5,2.2L44.7,41L40,38.6L35.2,41
		l-3.6-3.6L33.1,35.1z M40,2.5c6.6,0,9.7,2.9,10,9.2l-3.8,1.9l-12.5-5l-3.6,1.8C30.7,5,33.8,2.5,40,2.5z M20,28.7
		c0-4.6,3.5-8.3,7.9-8.7c1.2,5.6,3.5,8.3,4.6,9.3v3.2l-0.6-0.1l-2.8,4.2c-2.2,1.2-4.3,2-6.4,2.8c-0.9,0.3-1.8,0.7-2.7,1.1V28.7z
		 M16.2,65h1.2v8.5l-1.2-2.5V65z M60,77.5H20v-25c0-1.4,1.1-2.5,2.5-2.5h35c1.4,0,2.5,1.1,2.5,2.5V77.5z M63.7,65v6l-1.2,2.5V65
		H63.7z M57.5,47.5h-35c-2.8,0-5,2.2-5,5V55h-3.7v-1.2c0-8.3,3.9-9.8,9.8-12c1.9-0.7,4-1.6,6.2-2.7l5,5l5.2-2.6l5.2,2.6l5-5
		c2.4,1.3,4.8,2,6.9,2.7c5.7,1.8,9.1,2.9,9.1,10.7V55h-3.7v-2.5C62.5,49.7,60.2,47.5,57.5,47.5z"/>
	<path class="st0" d="M40,58.7c-2.8,0-5,2.2-5,5c0,2.8,2.2,5,5,5c2.8,0,5-2.2,5-5C45,61,42.7,58.7,40,58.7z M40,66.2
		c-1.4,0-2.5-1.1-2.5-2.5c0-1.4,1.1-2.5,2.5-2.5c1.4,0,2.5,1.1,2.5,2.5C42.5,65.1,41.4,66.2,40,66.2z"/>
</g>
</svg>
