<?xml version="1.0" encoding="utf-8"?>
<!-- Generator: Adobe Illustrator 20.1.0, SVG Export Plug-In . SVG Version: 6.00 Build 0)  -->
<svg version="1.1" id="Layer_1" xmlns="http://www.w3.org/2000/svg" xmlns:xlink="http://www.w3.org/1999/xlink" x="0px" y="0px"
	 width="77.4px" height="80px" viewBox="0 0 77.4 80" style="enable-background:new 0 0 77.4 80;" xml:space="preserve">
<style type="text/css">
	.st0{fill:#1695CA;}
</style>
<g>
	<path class="st0" d="M77.4,49.9c0-2.8-2.2-5-5-5c-2.8,0-5,2.2-5,5c0,2.6,2.1,4.8,4.7,5c0,1.4-0.3,2.7-1,3.8
		c-2.4,4.1-8.8,5.4-17,4.1c1.2-3.7,2.1-7.9,2.6-12.4c5.2-4,9.6-8.3,12.8-12.7c5-6.9,6.3-13.2,3.7-17.7c-3-5.2-10.5-6.9-20-5.3
		C49.9,5.7,44.7,0,38.7,0c-2.1,0-4.1,0.7-6,2.1C31.9,1.5,31,1.2,30,1.2c-2.8,0-5,2.2-5,5c0,2.8,2.2,5,5,5s5-2.2,5-5
		c0-0.8-0.2-1.6-0.6-2.3c1.4-0.9,2.9-1.4,4.3-1.4c4.7,0,9,4.9,12,12.7c-3.8,0.8-7.9,2.1-12,3.9C22.8,12.3,8.5,12.4,4.1,20
		c-2.6,4.5-1.3,10.8,3.7,17.7c3.1,4.4,7.6,8.7,12.8,12.7c0.6,4.5,1.5,8.7,2.6,12.4c-8.2,1.3-14.6,0-17-4.1c-0.6-1.1-0.9-2.4-1-3.8
		c2.6-0.2,4.7-2.3,4.7-5c0-2.8-2.2-5-5-5s-5,2.2-5,5c0,2,1.2,3.7,2.8,4.5c-0.1,2,0.3,3.9,1.3,5.5c2.3,3.9,7.2,5.9,13.6,5.9
		c2,0,4.1-0.2,6.4-0.6c3.4,9,8.6,14.7,14.6,14.7c6,0,11.2-5.7,14.6-14.7c2.2,0.4,4.4,0.6,6.4,0.6c6.4,0,11.3-1.9,13.6-5.9
		c0.9-1.6,1.3-3.5,1.3-5.5C76.2,53.6,77.4,51.9,77.4,49.9z M30,8.7c-1.4,0-2.5-1.1-2.5-2.5c0-1.4,1.1-2.5,2.5-2.5
		c1.4,0,2.5,1.1,2.5,2.5C32.5,7.6,31.3,8.7,30,8.7z M5,47.4c1.4,0,2.5,1.1,2.5,2.5c0,1.4-1.1,2.5-2.5,2.5c-1.4,0-2.5-1.1-2.5-2.5
		C2.5,48.6,3.6,47.4,5,47.4z M51.6,62.3c-3.1-0.6-6.4-1.6-9.7-2.9c2-1,4.1-2.1,6.2-3.2c2.1-1.2,4-2.4,5.9-3.7
		C53.4,56,52.6,59.3,51.6,62.3z M22.5,40c0-3.1,0.2-6.1,0.5-9.1c2.4-1.7,4.9-3.4,7.6-5c2.7-1.6,5.4-2.9,8.1-4.1
		c2.7,1.2,5.4,2.5,8.1,4.1c2.7,1.6,5.2,3.2,7.6,5c0.3,2.9,0.5,6,0.5,9.1c0,3.1-0.2,6.2-0.5,9.1c-2.4,1.7-4.9,3.4-7.6,5
		c-2.7,1.6-5.4,2.9-8.1,4.1c-2.7-1.2-5.4-2.5-8.1-4.1c-2.7-1.6-5.2-3.2-7.6-5C22.7,46.1,22.5,43.1,22.5,40z M57.2,46.9
		c0.2-2.3,0.3-4.6,0.3-7c0-2.4-0.1-4.7-0.3-7c2.8,2.2,5.3,4.6,7.4,7C62.4,42.3,59.9,44.7,57.2,46.9z M71.1,21.2c2,3.5,0.7,9-3.6,15
		c-0.4,0.6-0.9,1.2-1.4,1.8c-2.7-3-5.8-5.8-9.4-8.5c-0.6-4.5-1.5-8.7-2.6-12.4C62.3,15.9,68.8,17.1,71.1,21.2z M51.6,17.6
		c1,3,1.8,6.3,2.3,9.9c-1.9-1.3-3.8-2.5-5.9-3.7c-2.1-1.2-4.1-2.3-6.2-3.2C45.3,19.2,48.5,18.2,51.6,17.6z M29.3,23.7
		c-2.1,1.2-4,2.4-5.9,3.8c0.5-3.5,1.3-6.8,2.4-9.9c3.1,0.6,6.4,1.6,9.7,2.9C33.5,21.5,31.4,22.5,29.3,23.7z M6.3,21.2
		c2.4-4.1,8.8-5.4,17-4.1c-1.2,3.8-2.1,8-2.7,12.4c-3.6,2.7-6.7,5.6-9.4,8.5c-0.5-0.6-1-1.2-1.4-1.8C5.5,30.2,4.2,24.8,6.3,21.2z
		 M12.9,40c2.2-2.4,4.6-4.8,7.4-7c-0.2,2.3-0.3,4.6-0.3,7c0,2.4,0.1,4.7,0.3,7C17.5,44.7,15,42.3,12.9,40z M23.4,52.4
		c1.9,1.3,3.9,2.6,5.9,3.7c2.1,1.2,4.1,2.3,6.2,3.2c-3.4,1.3-6.6,2.3-9.7,2.9C24.8,59.3,24,56,23.4,52.4z M38.7,77.4
		c-4.7,0-9-4.9-12-12.7c3.8-0.8,7.9-2.1,12-3.9c4.2,1.8,8.2,3.1,12,3.9C47.8,72.5,43.4,77.4,38.7,77.4z M72.4,52.4
		c-1.4,0-2.5-1.1-2.5-2.5c0-1.4,1.1-2.5,2.5-2.5c1.4,0,2.5,1.1,2.5,2.5C74.9,51.3,73.8,52.4,72.4,52.4z"/>
	<path class="st0" d="M34.9,42.5c1.1,0.8,2.4,1.2,3.8,1.2c1.4,0,2.7-0.4,3.8-1.2c1.2,0.3,6.2,1.7,6.2,7.5h2.5c0-5.5-3.8-8.4-6.7-9.5
		c1.1-1.6,1.7-3.7,1.7-6.1c0-3.8-0.9-8.1-7.5-8.1c-6.6,0-7.5,4.3-7.5,8.1c0,2.4,0.6,4.5,1.7,6.1c-3,1.1-6.7,3.9-6.7,9.5h2.5
		C28.7,44.2,33.7,42.8,34.9,42.5z M38.7,28.7c3.8,0,5,1.4,5,5.6c0,3.3-1.8,6.9-5,6.9c-3.2,0-5-3.5-5-6.9
		C33.7,30.1,34.9,28.7,38.7,28.7z"/>
</g>
</svg>
