<?xml version="1.0" encoding="utf-8"?>
<!-- Generator: Adobe Illustrator 20.1.0, SVG Export Plug-In . SVG Version: 6.00 Build 0)  -->
<svg version="1.1" id="Layer_1" xmlns="http://www.w3.org/2000/svg" xmlns:xlink="http://www.w3.org/1999/xlink" x="0px" y="0px"
	 width="80px" height="80px" viewBox="0 0 80 80" style="enable-background:new 0 0 80 80;" xml:space="preserve">
<style type="text/css">
	.st0{fill:#1695CA;}
</style>
<g>
	<path class="st0" d="M15,38.8c0.3,0,0.6-0.1,0.9-0.4l5-5l-1.8-1.8l-2.9,2.9v-12c0-4.1,3.4-7.5,7.5-7.5h23.8v-2.5H23.8
		c-5.5,0-10,4.5-10,10v12l-2.9-2.9l-1.8,1.8l5,5C14.4,38.6,14.7,38.8,15,38.8z"/>
	<path class="st0" d="M64.1,39.1l-5,5l1.8,1.8l2.9-2.9v12c0,4.1-3.4,7.5-7.5,7.5H32.5V65h23.8c5.5,0,10-4.5,10-10V43l2.9,2.9
		l1.8-1.8l-5-5C65.4,38.6,64.6,38.6,64.1,39.1z"/>
	<path class="st0" d="M53.8,47.5v-3.2l-8.2-4.7c1.2-1.7,2-3.9,2-6.5c0-3.8-0.9-8.1-7.5-8.1c-6.6,0-7.5,4.3-7.5,8.1
		c0,2.6,0.7,4.8,2,6.5l-8.2,4.7v3.2c0,2.7,1.7,5,3.8,5h20C52,52.5,53.8,50.2,53.8,47.5z M40,27.5c3.8,0,5,1.4,5,5.6
		c0,3.3-1.8,6.9-5,6.9c-3.2,0-5-3.5-5-6.9C35,28.9,36.2,27.5,40,27.5z M28.8,47.5v-1.8l7.6-4.3c1.1,0.7,2.3,1.1,3.7,1.1
		c1.3,0,2.6-0.4,3.7-1.1l7.6,4.3v1.8c0,1.5-0.9,2.5-1.2,2.5H30C29.6,50,28.8,49,28.8,47.5z"/>
	<path class="st0" d="M21.2,60.6c0-3.8-0.9-8.1-7.5-8.1c-6.6,0-7.5,4.3-7.5,8.1c0,2.6,0.7,4.8,2,6.5L0,71.8V75c0,2.7,1.7,5,3.8,5h20
		c2,0,3.8-2.3,3.8-5v-3.2l-8.2-4.7C20.5,65.4,21.2,63.2,21.2,60.6z M13.8,55c3.8,0,5,1.4,5,5.6c0,3.3-1.8,6.9-5,6.9
		c-3.2,0-5-3.5-5-6.9C8.8,56.4,10,55,13.8,55z M25,75c0,1.5-0.9,2.5-1.2,2.5h-20c-0.4,0-1.2-1-1.2-2.5v-1.8l7.6-4.3
		c1.1,0.7,2.3,1.1,3.7,1.1c1.3,0,2.6-0.4,3.7-1.1l7.6,4.3V75z"/>
	<path class="st0" d="M71.8,14.6c1.2-1.7,2-3.9,2-6.5c0-3.8-0.9-8.1-7.5-8.1c-6.6,0-7.5,4.3-7.5,8.1c0,2.6,0.7,4.8,2,6.5l-8.2,4.7
		v3.2c0,2.7,1.7,5,3.8,5h20c2,0,3.8-2.3,3.8-5v-3.2L71.8,14.6z M66.2,2.5c3.8,0,5,1.4,5,5.6c0,3.3-1.8,6.9-5,6.9c-3.2,0-5-3.5-5-6.9
		C61.2,3.9,62.5,2.5,66.2,2.5z M77.5,22.5c0,1.5-0.9,2.5-1.2,2.5h-20c-0.4,0-1.2-1-1.2-2.5v-1.8l7.6-4.3c1.1,0.7,2.3,1.1,3.7,1.1
		c1.3,0,2.6-0.4,3.7-1.1l7.6,4.3V22.5z"/>
</g>
</svg>
