<?xml version="1.0" encoding="utf-8"?>
<!-- Generator: Adobe Illustrator 20.1.0, SVG Export Plug-In . SVG Version: 6.00 Build 0)  -->
<svg version="1.1" id="Layer_1" xmlns="http://www.w3.org/2000/svg" xmlns:xlink="http://www.w3.org/1999/xlink" x="0px" y="0px"
	 width="79.4px" height="79.4px" viewBox="0 0 79.4 79.4" style="enable-background:new 0 0 79.4 79.4;" xml:space="preserve">
<style type="text/css">
	.st0{fill:#1695CA;}
</style>
<g>
	<path class="st0" d="M73.2,60.1c0-3.8-0.8-8.1-7.4-8.1c-6.6,0-7.4,4.3-7.4,8.1c0,2.5,0.7,4.8,2,6.4l-7,4l-8.1-4
		c1.2-1.6,1.9-3.8,1.9-6.3c0-3.8-0.8-8.1-7.4-8.1c-6.6,0-7.4,4.3-7.4,8.1c0,2.5,0.7,4.7,1.9,6.3l-8.1,4l-7-4c1.2-1.6,2-3.9,2-6.4
		c0-3.8-0.8-8.1-7.4-8.1c-6.6,0-7.4,4.3-7.4,8.1c0,2.5,0.7,4.8,2,6.4L0,71.2v3.2c0,2.7,1.7,5,3.7,5h71.9c2,0,3.7-2.3,3.7-5v-3.2
		l-8.2-4.7C72.4,64.9,73.2,62.7,73.2,60.1z M65.7,54.6c3.8,0,5,1.4,5,5.6c0,3.3-1.7,6.8-5,6.8c-3.2,0-5-3.5-5-6.8
		C60.8,55.9,62,54.6,65.7,54.6z M39.7,54.6c3.8,0,5,1.4,5,5.6c0,3.3-1.7,6.8-5,6.8c-3.2,0-5-3.5-5-6.8
		C34.7,55.9,35.9,54.6,39.7,54.6z M13.6,54.6c3.8,0,5,1.4,5,5.6c0,3.3-1.7,6.8-5,6.8c-3.2,0-5-3.5-5-6.8
		C8.7,55.9,9.9,54.6,13.6,54.6z M76.9,74.4c0,1.5-0.9,2.5-1.2,2.5H3.7c-0.4,0-1.2-1-1.2-2.5v-1.8l7.5-4.3c1.1,0.7,2.3,1.1,3.6,1.1
		c1.3,0,2.6-0.4,3.6-1.1l7.5,4.3v3h2.5v-3l8.7-4.4c1.1,0.7,2.3,1.1,3.7,1.1s2.6-0.4,3.7-1.1l8.7,4.4v3h2.5v-3l7.5-4.3
		c1.1,0.7,2.3,1.1,3.6,1.1c1.3,0,2.6-0.4,3.6-1.1l7.5,4.3V74.4z"/>
	<path class="st0" d="M76.9,0H2.5C1.1,0,0,1.1,0,2.5v37.2c0,1.4,1.1,2.5,2.5,2.5h3.2l7.1,7.1c0.5,0.5,1.3,0.5,1.8,0l7.1-7.1h10.1
		l7.1,7.1c0.5,0.5,1.3,0.5,1.8,0l7.1-7.1h10.1l7.1,7.1c0.2,0.2,0.6,0.4,0.9,0.4c0.3,0,0.6-0.1,0.9-0.4l7.1-7.1h3.2
		c1.4,0,2.5-1.1,2.5-2.5V2.5C79.4,1.1,78.3,0,76.9,0z M76.9,39.7h-3.7c-0.3,0-0.6,0.1-0.9,0.4l-6.6,6.6L59.2,40
		c-0.2-0.2-0.5-0.4-0.9-0.4H47.1c-0.3,0-0.6,0.1-0.9,0.4l-6.6,6.6L33.1,40c-0.2-0.2-0.5-0.4-0.9-0.4H21.1c-0.3,0-0.6,0.1-0.9,0.4
		l-6.6,6.6L7.1,40c-0.2-0.2-0.5-0.4-0.9-0.4H2.5V2.5h74.4V39.7z"/>
	<path class="st0" d="M34.2,36h4.8l11.8-15.7v-2.9h-9.4l3.7-11.2h-4.8L27.3,21.9v2.9H38L34.2,36z M30.1,22.3L41.5,8.7h0.2L38,19.8
		h10.1L37.8,33.5h-0.1l3.7-11.2H30.1z"/>
	<rect x="9.9" y="21.1" class="st0" width="2.5" height="2.5"/>
	<rect x="14.9" y="21.1" class="st0" width="2.5" height="2.5"/>
	<rect x="19.8" y="21.1" class="st0" width="2.5" height="2.5"/>
	<rect x="57" y="21.1" class="st0" width="2.5" height="2.5"/>
	<rect x="62" y="21.1" class="st0" width="2.5" height="2.5"/>
	<rect x="67" y="21.1" class="st0" width="2.5" height="2.5"/>
</g>
</svg>
