<?xml version="1.0" encoding="utf-8"?>
<!-- Generator: Adobe Illustrator 20.1.0, SVG Export Plug-In . SVG Version: 6.00 Build 0)  -->
<svg version="1.1" id="Layer_1" xmlns="http://www.w3.org/2000/svg" xmlns:xlink="http://www.w3.org/1999/xlink" x="0px" y="0px"
	 width="192px" height="205.9px" viewBox="0 0 192 205.9" style="enable-background:new 0 0 192 205.9;" xml:space="preserve">
<style type="text/css">
	.st0{fill:#1695CA;}
</style>
<g>
	<path class="st0" d="M140.3,0H51.7C23.2,0,0,23.2,0,51.7v22v58.5v22c0,28.5,23.2,51.7,51.7,51.7h88.6c28.5,0,51.7-23.2,51.7-51.7
		v-22V73.7v-22C192,23.2,168.8,0,140.3,0z M6,51.7C6,26.5,26.5,6,51.7,6h88.6C165.5,6,186,26.5,186,51.7v22v58.5
		c0,25.2-20.5,45.7-45.7,45.7H51.7C26.5,177.9,6,157.4,6,132.2V73.7V51.7z M140.3,199.9H51.7c-24.4,0-44.4-19.3-45.6-43.4
		c8.7,16.3,25.9,27.4,45.6,27.4h88.6c19.7,0,36.9-11.1,45.6-27.4C184.8,180.6,164.7,199.9,140.3,199.9z"/>
	<path class="st0" d="M96.6,97.2c21,0,37.5-28.9,37.5-65.8c0-4-0.2-8-0.6-12l-0.2-1.9l-1.8-0.6c-11-3.9-22.8-5.9-34.9-5.9
		s-23.8,2-34.9,5.9l-1.8,0.6l-0.2,1.9c-0.4,4-0.6,8-0.6,12C59.1,68.3,75.6,97.2,96.6,97.2z M65.5,21.9c9.9-3.3,20.3-4.9,31.1-4.9
		c10.7,0,21.2,1.7,31.1,4.9c0.3,3.1,0.4,6.3,0.4,9.5c0,32.4-14.4,59.8-31.5,59.8c-17.1,0-31.5-27.4-31.5-59.8
		C65.1,28.2,65.2,25.1,65.5,21.9z"/>
	<path class="st0" d="M96.6,76.7c6.3,0,11.4-5.1,11.4-11.4c0-5.2-3.6-9.7-8.4-11V27c0-1.7-1.3-3-3-3c-1.7,0-3,1.3-3,3v27.4
		c-4.8,1.3-8.4,5.7-8.4,11C85.2,71.6,90.3,76.7,96.6,76.7z M96.6,59.9c3,0,5.4,2.4,5.4,5.4c0,3-2.4,5.4-5.4,5.4
		c-3,0-5.4-2.4-5.4-5.4C91.2,62.4,93.6,59.9,96.6,59.9z"/>
	<path class="st0" d="M151.9,53.3h20.9c1.7,0,3-1.3,3-3c0-1.7-1.3-3-3-3h-20.9c-1.7,0-3,1.3-3,3C148.9,51.9,150.2,53.3,151.9,53.3z"
		/>
	<path class="st0" d="M145.7,72.9h27c1.7,0,3-1.3,3-3c0-1.7-1.3-3-3-3h-27c-1.7,0-3,1.3-3,3C142.7,71.6,144.1,72.9,145.7,72.9z"/>
	<path class="st0" d="M141.1,92.6h31.7c1.7,0,3-1.3,3-3c0-1.7-1.3-3-3-3h-31.7c-1.7,0-3,1.3-3,3C138.1,91.3,139.4,92.6,141.1,92.6z"
		/>
	<path class="st0" d="M172.8,106.3h-45.4c-1.7,0-3,1.3-3,3c0,1.7,1.3,3,3,3h45.4c1.7,0,3-1.3,3-3
		C175.8,107.6,174.4,106.3,172.8,106.3z"/>
	<path class="st0" d="M172.8,125.9h-59.1c-1.7,0-3,1.3-3,3c0,1.7,1.3,3,3,3h59.1c1.7,0,3-1.3,3-3
		C175.8,127.2,174.4,125.9,172.8,125.9z"/>
	<path class="st0" d="M162.1,145.6h-57.8c-1.7,0-3,1.3-3,3c0,1.7,1.3,3,3,3h57.8c1.7,0,3-1.3,3-3
		C165.1,146.9,163.8,145.6,162.1,145.6z"/>
	<path class="st0" d="M19.2,53.3h20.9c1.7,0,3-1.3,3-3c0-1.7-1.3-3-3-3H19.2c-1.7,0-3,1.3-3,3C16.2,51.9,17.6,53.3,19.2,53.3z"/>
	<path class="st0" d="M19.2,72.9h27c1.7,0,3-1.3,3-3c0-1.7-1.3-3-3-3h-27c-1.7,0-3,1.3-3,3C16.2,71.6,17.6,72.9,19.2,72.9z"/>
	<path class="st0" d="M19.2,92.6h31.7c1.7,0,3-1.3,3-3c0-1.7-1.3-3-3-3H19.2c-1.7,0-3,1.3-3,3C16.2,91.3,17.6,92.6,19.2,92.6z"/>
	<path class="st0" d="M19.2,112.3h45.4c1.7,0,3-1.3,3-3c0-1.7-1.3-3-3-3H19.2c-1.7,0-3,1.3-3,3C16.2,110.9,17.6,112.3,19.2,112.3z"
		/>
	<path class="st0" d="M19.2,131.9h59.1c1.7,0,3-1.3,3-3c0-1.7-1.3-3-3-3H19.2c-1.7,0-3,1.3-3,3C16.2,130.6,17.6,131.9,19.2,131.9z"
		/>
	<path class="st0" d="M87.6,145.6H29.8c-1.7,0-3,1.3-3,3c0,1.7,1.3,3,3,3h57.8c1.7,0,3-1.3,3-3C90.6,146.9,89.2,145.6,87.6,145.6z"
		/>
</g>
</svg>
