<?xml version="1.0" encoding="utf-8"?>
<!-- Generator: Adobe Illustrator 20.1.0, SVG Export Plug-In . SVG Version: 6.00 Build 0)  -->
<svg version="1.1" id="Layer_1" xmlns="http://www.w3.org/2000/svg" xmlns:xlink="http://www.w3.org/1999/xlink" x="0px" y="0px"
	 width="118.6px" height="72.8px" viewBox="0 0 118.6 72.8" style="enable-background:new 0 0 118.6 72.8;" xml:space="preserve">
<style type="text/css">
	.st0{fill:#FFFFFF;}
	.st1{fill:#9FBACE;}
	.st2{fill:#1695CA;}
	.st3{fill:#0D6BA2;}
	.st4{fill:#FFFFFE;}
</style>
<path class="st0" d="M107.8,10.5C100.8,3.7,91.4,0,81.1,0c-8,0-15.4,2.2-21.7,6.4C53.2,2.2,45.8,0,37.7,0c-10,0-19.4,3.6-26.3,10.2
	C4.6,16.6,0.6,25.3,0.1,34.6l-0.1,0.3v0.3C0,35.6,0,36.1,0,36.6v0.1c0,0.4,0,0.8,0.1,1.2c0,0.1,0,0.3,0,0.4l0,0.3l0.1,0.3
	c0,0,0,0,0,0.1c1.2,19.4,17.2,33.9,37.4,33.9c8,0,15.4-2.2,21.7-6.4c6.2,4.2,13.7,6.4,21.7,6.4c10.1,0,19.5-3.6,26.4-10.3
	c6.9-6.5,10.8-15.4,11.2-24.9c0-0.3,0-0.5,0-0.7l0-0.7C118.6,26.4,114.7,17.3,107.8,10.5z M39.9,29.6L39.9,29.6L39.9,29.6L39.9,29.6
	z M32.2,34.5C32.2,34.5,32.2,34.5,32.2,34.5L32.2,34.5C32.2,34.5,32.2,34.5,32.2,34.5z M26.5,29.7C26.5,29.7,26.5,29.7,26.5,29.7
	C26.5,29.7,26.5,29.7,26.5,29.7L26.5,29.7z M90.4,43.4L90.4,43.4L90.4,43.4L90.4,43.4L90.4,43.4z"/>
<g>
	<path class="st1" d="M78,32.9c-2.1,0-3.5,1.7-3.5,3.7v0c0,2,1.4,3.7,3.5,3.7c2.1,0,3.5-1.7,3.5-3.7v-0.1
		C81.5,34.6,80.1,32.9,78,32.9z"/>
	<path class="st1" d="M106,33.1h-1.6v7h1.6c2.3,0,3.8-1.2,3.8-3.5v-0.1C109.8,34.3,108.3,33.1,106,33.1z"/>
	<path class="st1" d="M105.9,43.4h-5.2V29.7h5.3c4.9,0,7.7,2.8,7.7,6.7c0,0,0,0,0,0v-0.2c0-17.5-14-31.6-32.8-31.6
		c-8.5,0-16,2.9-21.7,7.6c6.9,5.8,11.1,14.4,11.1,24v0.2c0,9.7-4.3,18.4-11.3,24.2c5.7,4.7,13.2,7.6,21.7,7.6
		c18.7,0,32.8-14,33-31.4C113.6,40.6,110.7,43.4,105.9,43.4z M85.4,36.6c0,3.9-3.2,7.1-7.4,7.1c-4.2,0-7.4-3.1-7.4-7.1v-0.1
		c0-3.9,3.2-7.1,7.4-7.1C82.3,29.4,85.4,32.6,85.4,36.6L85.4,36.6z M99.3,43.4H96l-5.9-7.5v7.5h-3.7V29.7h3.5l5.6,7.2v-7.2h3.7V43.4
		z"/>
	<path class="st2" d="M48.5,43.4h-2.3V29.7h2.3c1.5-6.9,5.3-13.1,10.6-17.5C53.5,7.5,46,4.6,37.5,4.6C19,4.6,5,18.3,4.5,35.3
		c0.6-3.3,3.5-5.9,7.3-5.9c4.2,0,7.4,3.1,7.4,7.1v0c0,3.9-3.2,7.1-7.4,7.1c-3.7,0-6.6-2.5-7.2-5.8c0.7,16.9,14.4,30.3,32.8,30.3
		c8.5,0,16-2.9,21.7-7.6C53.7,56.2,50,50.2,48.5,43.4z M24.1,39.5v3.9h-3.8V29.7h5.9c3.5,0,5.7,1.8,5.7,4.8v0.1c0,3.2-2.5,5-5.9,5
		L24.1,39.5L24.1,39.5z M41.4,43.4l-1-2.5h-5.3l-1,2.5h-4L36,29.6h3.7l5.8,13.8H41.4z"/>
	<polygon class="st2" points="36.2,38 39.3,38 37.8,34.1 	"/>
	<path class="st2" d="M25.9,32.9h-1.8v3.6H26c1.3,0,2.2-0.7,2.2-1.8v-0.1C28.1,33.5,27.3,32.9,25.9,32.9z"/>
	<path class="st2" d="M11.7,40.3c2.1,0,3.5-1.7,3.5-3.7v-0.1c0-2-1.4-3.7-3.5-3.7c-2.1,0-3.5,1.7-3.5,3.7v0
		C8.2,38.5,9.6,40.3,11.7,40.3z"/>
	<g>
		<path class="st3" d="M64.4,37.8h-2.9v2.5h2.9c1.2,0,1.8-0.4,1.8-1.2v0C66.3,38.3,65.7,37.8,64.4,37.8z"/>
		<path class="st3" d="M59.1,12.2c-5.4,4.5-9.1,10.6-10.6,17.5H50v10.4h6.5v3.3h-8C50,50.2,53.7,56.2,59,60.6
			c7-5.8,11.3-14.5,11.3-24.2v-0.2C70.3,26.6,66.1,18,59.1,12.2z M70,39.6c0,2.3-1.9,3.8-5.2,3.8h-7.1V29.7h7c1.7,0,2.9,0.4,3.7,1.2
			c0.6,0.6,0.9,1.3,0.9,2.2v0c0,1.6-0.9,2.5-2.1,3.1C69,36.8,70,37.7,70,39.6L70,39.6L70,39.6z"/>
		<path class="st1" d="M105.9,43.4h-5.2V29.7h5.3c4.9,0,7.7,2.8,7.7,6.7c0,0,0,0,0,0v-0.2c0-17.5-14-31.6-32.8-31.6
			c-8.5,0-16,2.9-21.7,7.6c6.9,5.8,11.1,14.4,11.1,24v0.2c0,9.7-4.3,18.4-11.3,24.2c5.7,4.7,13.2,7.6,21.7,7.6
			c18.7,0,32.8-14,33-31.4C113.6,40.6,110.7,43.4,105.9,43.4z M85.4,36.6c0,3.9-3.2,7.1-7.4,7.1c-4.2,0-7.4-3.1-7.4-7.1v-0.1
			c0-3.9,3.2-7.1,7.4-7.1C82.3,29.4,85.4,32.6,85.4,36.6L85.4,36.6z M99.3,43.4H96l-5.9-7.5v7.5h-3.7V29.7h3.5l5.6,7.2v-7.2h3.7
			V43.4z"/>
		<path class="st2" d="M48.5,43.4h-2.3V29.7h2.3c1.5-6.9,5.3-13.1,10.6-17.5C53.5,7.5,46,4.6,37.5,4.6C19,4.6,5,18.3,4.5,35.3
			c0.6-3.3,3.5-5.9,7.3-5.9c4.2,0,7.4,3.1,7.4,7.1v0c0,3.9-3.2,7.1-7.4,7.1c-3.7,0-6.6-2.5-7.2-5.8c0.7,16.9,14.4,30.3,32.8,30.3
			c8.5,0,16-2.9,21.7-7.6C53.7,56.2,50,50.2,48.5,43.4z M24.1,39.5v3.9h-3.8V29.7h5.9c3.5,0,5.7,1.8,5.7,4.8v0.1c0,3.2-2.5,5-5.9,5
			L24.1,39.5L24.1,39.5z M41.4,43.4l-1-2.5h-5.3l-1,2.5h-4L36,29.6h3.7l5.8,13.8H41.4z"/>
		<path class="st3" d="M59.1,12.2c-5.4,4.5-9.1,10.6-10.6,17.5H50v10.4h6.5v3.3h-8C50,50.2,53.7,56.2,59,60.6
			c7-5.8,11.3-14.5,11.3-24.2v-0.2C70.3,26.6,66.1,18,59.1,12.2z M70,39.6c0,2.3-1.9,3.8-5.2,3.8h-7.1V29.7h7c1.7,0,2.9,0.4,3.7,1.2
			c0.6,0.6,0.9,1.3,0.9,2.2v0c0,1.6-0.9,2.5-2.1,3.1C69,36.8,70,37.7,70,39.6L70,39.6L70,39.6z"/>
		<path class="st3" d="M65.7,34L65.7,34c0-0.8-0.6-1.2-1.7-1.2h-2.5v2.4h2.4C65.1,35.2,65.7,34.8,65.7,34z"/>
	</g>
	<path class="st4" d="M4.4,36.4c0-0.4,0-0.7,0-1.1c-0.1,0.4-0.1,0.8-0.1,1.3v0.1c0,0.4,0.1,0.9,0.1,1.3c-0.1-0.4-0.1-0.9-0.1-1.3
		V36.4z"/>
	<path class="st4" d="M11.7,43.7c4.2,0,7.4-3.2,7.4-7.1v0c0-3.9-3.1-7.1-7.4-7.1C8,29.5,5,32,4.4,35.3c0,0.4,0,0.7,0,1.1v0.2
		c0,0.4,0,0.9,0,1.3C5.1,41.2,8,43.7,11.7,43.7z M8.2,36.5c0-2,1.4-3.7,3.5-3.7s3.5,1.7,3.5,3.7v0.1c0,2-1.4,3.7-3.5,3.7
		C9.7,40.3,8.2,38.6,8.2,36.5L8.2,36.5L8.2,36.5z"/>
	<path class="st4" d="M31.9,34.6L31.9,34.6c0-3.1-2.2-4.9-5.7-4.9h-5.9v13.7h3.8v-3.9H26C29.4,39.5,31.9,37.8,31.9,34.6z M28.1,34.7
		c0,1.1-0.8,1.8-2.2,1.8h-1.8v-3.6h1.8C27.3,32.9,28.1,33.5,28.1,34.7C28.1,34.7,28.1,34.7,28.1,34.7z"/>
	<path class="st4" d="M36,29.6l-5.8,13.8h4l1-2.5h5.3l1,2.5h4.1l-5.8-13.8H36z M36.2,38l1.6-3.9l1.5,3.9H36.2z"/>
	<path class="st4" d="M46.3,43.4h2.3c-0.5-2.2-0.7-4.5-0.7-6.8v-0.2c0-2.3,0.2-4.5,0.7-6.7h-2.3L46.3,43.4L46.3,43.4z"/>
	<path class="st4" d="M47.8,36.6c0,2.3,0.3,4.6,0.7,6.8h8v-3.3h-6.5V29.7h-1.5c-0.5,2.2-0.7,4.4-0.7,6.7L47.8,36.6L47.8,36.6z"/>
	<path class="st4" d="M70,39.6L70,39.6c0-1.9-1.1-2.8-2.7-3.4c1.2-0.5,2.1-1.5,2.1-3.1v0c0-0.9-0.3-1.7-0.9-2.2
		c-0.8-0.8-2-1.2-3.7-1.2h-7v13.7h7.1C68.1,43.4,70,42,70,39.6z M61.5,32.8H64c1.1,0,1.7,0.4,1.7,1.2v0c0,0.8-0.7,1.2-1.8,1.2h-2.4
		V32.8z M61.5,40.4v-2.5h2.9c1.3,0,1.8,0.5,1.8,1.2v0c0,0.8-0.6,1.2-1.8,1.2L61.5,40.4L61.5,40.4z"/>
	<path class="st4" d="M78,29.4c-4.2,0-7.4,3.2-7.4,7.1v0.1c0,3.9,3.1,7.1,7.4,7.1c4.2,0,7.4-3.2,7.4-7.1v0
		C85.4,32.6,82.3,29.4,78,29.4z M81.5,36.6c0,2-1.4,3.7-3.5,3.7c-2.1,0-3.5-1.7-3.5-3.7v-0.1c0-2,1.4-3.7,3.5-3.7
		C80.1,32.9,81.5,34.6,81.5,36.6L81.5,36.6L81.5,36.6z"/>
	<polygon class="st4" points="95.5,37 89.9,29.7 86.4,29.7 86.4,43.4 90.1,43.4 90.1,35.9 96,43.4 99.3,43.4 99.3,29.7 95.5,29.7 	
		"/>
	<path class="st4" d="M113.7,36.5C113.7,36.5,113.7,36.5,113.7,36.5c0,0.1,0,0.2,0,0.3C113.7,36.7,113.7,36.6,113.7,36.5L113.7,36.5
		z"/>
	<path class="st4" d="M106,29.7h-5.3v13.7h5.2c4.8,0,7.7-2.8,7.8-6.6c0-0.1,0-0.2,0-0.3C113.6,32.5,110.8,29.7,106,29.7z
		 M109.8,36.6c0,2.2-1.5,3.5-3.8,3.5h-1.6v-7h1.6C108.3,33.1,109.8,34.3,109.8,36.6L109.8,36.6z"/>
</g>
</svg>
