<?xml version="1.0" encoding="utf-8"?>
<!-- Generator: Adobe Illustrator 20.1.0, SVG Export Plug-In . SVG Version: 6.00 Build 0)  -->
<svg version="1.1" id="Layer_1" xmlns="http://www.w3.org/2000/svg" xmlns:xlink="http://www.w3.org/1999/xlink" x="0px" y="0px"
	 viewBox="0 0 414.1 241" style="enable-background:new 0 0 414.1 241;" xml:space="preserve">
<style type="text/css">
	.st0{fill:#9FBACE;}
	.st1{fill:#5DC092;}
	.st2{fill:#3A8B76;}
	.st3{fill:#FFFFFE;}
	.st4{fill:#1695CA;}
	.st5{fill:#0D6BA2;}
	.st6{fill:#EB6258;}
	.st7{fill:#934646;}
	.st8{fill:#B381B3;}
	.st9{fill:#705E91;}
	.st10{fill:#C1B198;}
	.st11{fill:#78807A;}
</style>
<g>
	<path class="st0" d="M278.8,107.1c-7.9,0-13.2,6.4-13.2,13.9v0.1c0,7.5,5.4,14,13.3,14c7.9,0,13.1-6.4,13.1-13.9v-0.2
		C292.1,113.5,286.8,107.1,278.8,107.1z"/>
	<path class="st0" d="M384.6,147.1h-19.8V95.1h20.1c18.4,0,29.1,10.6,29.2,25.4c0,0,0,0,0-0.1v-0.7C414.1,53.3,361.1,0,289.6,0
		c-32.1,0-60.5,10.9-82.2,28.8c26.3,21.9,42.2,54.5,42.2,91v0.7c0,36.7-16.3,69.6-43,91.7c21.5,18,50,28.8,82.3,28.8
		c71,0,124.4-53.2,125.1-119.2C413.7,136.4,402.8,147.1,384.6,147.1z M306.9,121.1c0,14.9-12,27-28,27c-16,0-27.9-11.9-27.9-26.8
		v-0.2c0-14.9,12-27,28-27c16,0,27.9,11.9,27.9,26.8V121.1z M359.6,147.1h-12.5l-22.3-28.5v28.5h-14.2V95.1H324l21.4,27.4V95.1h14.2
		V147.1z"/>
	<path class="st0" d="M385,107.8h-5.9v26.5h5.9c8.7,0,14.4-4.7,14.4-13.1V121C399.4,112.7,393.7,107.8,385,107.8z"/>
	<path class="st1" d="M167.2,147.1h-8.6V95.1h8.6c5.6-26.3,20-49.5,40.3-66.3c-21.5-18-50-28.8-82.3-28.8C55.2,0,2.3,51.7,0.1,116.3
		c2.3-12.6,13.3-22.2,27.6-22.2c16,0,27.9,11.9,27.9,26.8v0.1c0,14.9-12,27-28,27c-14.2,0-25.1-9.4-27.4-21.8
		C2.7,190.4,54.8,241,124.5,241c32.1,0,60.5-10.9,82.2-28.8C186.8,195.6,172.8,172.9,167.2,147.1z M74.7,132.2v14.8H60.3V95.1h22.3
		c13.1,0,21.5,6.7,21.5,18.2v0.2c0,12.3-9.4,18.8-22.2,18.8H74.7z M140.1,147.1l-3.7-9.3h-20.1l-3.7,9.3H97.6l22-52.3h13.9
		l22.1,52.3H140.1z"/>
	<path class="st1" d="M81.5,107.2h-6.8V121h6.9c5,0,8.2-2.7,8.2-6.8V114C89.8,109.5,86.6,107.2,81.5,107.2z"/>
	<polygon class="st1" points="120.5,126.5 132.2,126.5 126.4,111.8 	"/>
	<path class="st1" d="M27.7,135.1c7.9,0,13.1-6.4,13.1-13.9v-0.2c0-7.6-5.3-14-13.3-14c-7.9,0-13.2,6.4-13.2,13.9v0.1
		C14.3,128.6,19.7,135.1,27.7,135.1z"/>
	<g>
		<path class="st2" d="M227.3,125.9h-11v9.6h11.1c4.5,0,6.9-1.7,6.9-4.7v-0.1C234.4,127.8,232.1,125.9,227.3,125.9z"/>
		<path class="st2" d="M232.3,111.3v-0.1c0-2.9-2.3-4.4-6.5-4.4h-9.4v9.1h9C229.8,115.8,232.3,114.4,232.3,111.3z"/>
		<path class="st2" d="M207.4,28.8c-20.3,16.9-34.6,40-40.3,66.3h5.8v39.3h24.8v12.6h-30.5c5.6,25.9,19.6,48.6,39.5,65.2
			c26.6-22.1,43-55,43-91.7v-0.7C249.7,83.3,233.7,50.8,207.4,28.8z M248.7,132.7c0,8.9-7.3,14.3-19.7,14.3h-26.8V95.1h26.6
			c6.5,0,11.1,1.6,14.2,4.6c2.1,2.1,3.3,4.9,3.3,8.5v0.1c0,6-3.4,9.6-8,11.6c6.3,2.1,10.3,5.6,10.3,12.7V132.7z"/>
	</g>
	<path class="st3" d="M0,120.5c0-1.4,0-2.8,0.1-4.2c-0.3,1.6-0.4,3.2-0.4,4.8v0.2c0,1.7,0.2,3.4,0.5,5C0,124.6,0,122.9,0,121.2
		V120.5z"/>
	<path class="st3" d="M27.5,148.1c16,0,28-12.1,28-27V121c0-14.9-11.9-26.8-27.9-26.8c-14.2,0-25.3,9.6-27.6,22.2
		c0,1.4-0.1,2.8-0.1,4.2v0.7c0,1.7,0,3.4,0.1,5.1C2.4,138.7,13.4,148.1,27.5,148.1z M14.3,121c0-7.5,5.3-13.9,13.2-13.9
		c7.9,0,13.3,6.5,13.3,14v0.2c0,7.5-5.3,13.9-13.1,13.9c-7.9,0-13.3-6.5-13.3-14V121z"/>
	<path class="st3" d="M104.1,113.5v-0.2c0-11.4-8.4-18.2-21.5-18.2H60.3v51.9h14.4v-14.8h7.2C94.7,132.2,104.1,125.8,104.1,113.5z
		 M89.8,114.1c0,4.1-3.2,6.8-8.2,6.8h-6.9v-13.7h6.8c5.1,0,8.3,2.3,8.3,6.8V114.1z"/>
	<path class="st3" d="M119.6,94.8l-22,52.3h15.1l3.7-9.3h20.1l3.7,9.3h15.4l-22.1-52.3H119.6z M120.5,126.5l5.9-14.7l5.8,14.7H120.5
		z"/>
	<path class="st3" d="M158.6,147.1h8.6c-1.8-8.3-2.8-17-2.8-25.9v-0.7c0-8.7,0.9-17.2,2.7-25.4h-8.6V147.1z"/>
	<path class="st3" d="M164.4,121.2c0,8.9,1,17.5,2.8,25.9h30.5v-12.6H173V95.1h-5.8c-1.8,8.2-2.7,16.7-2.7,25.4V121.2z"/>
	<path class="st3" d="M248.7,132.7v-0.1c0-7-4-10.6-10.3-12.7c4.6-2,8-5.6,8-11.6v-0.1c0-3.6-1.3-6.3-3.3-8.5c-3-3-7.6-4.6-14.2-4.6
		h-26.6v51.9h26.8C241.5,147.1,248.7,141.6,248.7,132.7z M216.3,106.7h9.4c4.2,0,6.5,1.6,6.5,4.4v0.1c0,3-2.5,4.5-6.9,4.5h-9V106.7z
		 M216.3,135.5v-9.6h11c4.8,0,7,1.9,7,4.7v0.1c0,3-2.4,4.7-6.9,4.7H216.3z"/>
	<path class="st3" d="M279,94.1c-16,0-28,12.1-28,27v0.2c0,14.9,11.9,26.8,27.9,26.8c16,0,28-12.1,28-27V121
		C306.9,106,295,94.1,279,94.1z M292.1,121.3c0,7.5-5.3,13.9-13.1,13.9c-7.9,0-13.3-6.5-13.3-14V121c0-7.5,5.3-13.9,13.2-13.9
		c7.9,0,13.3,6.5,13.3,14V121.3z"/>
	<polygon class="st3" points="345.4,122.6 324,95.1 310.6,95.1 310.6,147.1 324.8,147.1 324.8,118.6 347.1,147.1 359.6,147.1 
		359.6,95.1 345.4,95.1 	"/>
	<path class="st3" d="M414.1,120.8c0-0.1,0-0.1,0-0.2c0,0.4,0,0.9,0,1.3c0-0.3,0-0.6,0-0.9V120.8z"/>
	<path class="st3" d="M384.9,95.1h-20.1v51.9h19.8c18.2,0,29.1-10.7,29.5-25.2c0-0.4,0-0.9,0-1.3C414,105.7,403.3,95.1,384.9,95.1z
		 M399.4,121.2c0,8.4-5.7,13.1-14.4,13.1h-5.9v-26.5h5.9c8.7,0,14.4,4.9,14.4,13.2V121.2z"/>
</g>
</svg>
